<svg id="visual" viewBox="0 0 960 540" width="960" height="540" xmlns="http://www.w3.org/2000/svg" xmlns:xlink="http://www.w3.org/1999/xlink" version="1.1"><rect x="0" y="0" width="960" height="540" fill="#0f0f0f"></rect><path d="M0 387L40 390C80 393 160 399 240 408.2C320 417.3 400 429.7 480 443.7C560 457.7 640 473.3 720 453.3C800 433.3 880 377.7 920 349.8L960 322L960 541L920 541C880 541 800 541 720 541C640 541 560 541 480 541C400 541 320 541 240 541C160 541 80 541 40 541L0 541Z" fill="#212121" stroke-linecap="round" stroke-linejoin="miter"></path></svg>